HIERARCHY
ROOT hip
{
  OFFSET 0 0 0
  CHANNELS 6 Xposition Yposition Zposition Zrotation Yrotation Xrotation
  JOINT abdomen
  {
    OFFSET 0 20.6881 -0.73152
    CHANNELS 3 Zrotation Xrotation Yrotation
    JOINT chest
    {
      OFFSET 0 11.7043 -0.48768
      CHANNELS 3 Zrotation Xrotation Yrotation
      JOINT neck
      {
        OFFSET 0 22.1894 -2.19456
        CHANNELS 3 Zrotation Xrotation Yrotation
        JOINT head
        {
          OFFSET -0.24384 7.07133 1.2192
          CHANNELS 3 Zrotation Xrotation Yrotation
          JOINT leftEye
          {
            OFFSET 4.14528 8.04674 8.04672
            CHANNELS 3 Zrotation Xrotation Yrotation
            End Site
            {
              OFFSET 1 0 0
            }
          }
          JOINT rightEye
          {
            OFFSET -3.6576 8.04674 8.04672
            CHANNELS 3 Zrotation Xrotation Yrotation
            End Site
            {
              OFFSET 1 0 0
            }
          }
        }
      }
      JOINT rCollar
      {
        OFFSET -2.68224 19.2634 -4.8768
        CHANNELS 3 Zrotation Xrotation Yrotation
        JOINT rShldr
        {
          OFFSET -8.77824 -1.95073 1.46304
          CHANNELS 3 Zrotation Xrotation Yrotation
          JOINT rForeArm
          {
            OFFSET -28.1742 -1.7115 0.48768
            CHANNELS 3 Zrotation Xrotation Yrotation
            JOINT rHand
            {
              OFFSET -22.5879 0.773209 7.07136
              CHANNELS 3 Zrotation Xrotation Yrotation
              JOINT rThumb1
              {
                OFFSET -1.2192 -0.487915 3.41376
                CHANNELS 3 Zrotation Xrotation Yrotation
                JOINT rThumb2
                {
                  OFFSET -3.37035 -0.52449 3.41376
                  CHANNELS 3 Zrotation Xrotation Yrotation
                  End Site
                  {
                    OFFSET -1.78271 -1.18214 1.43049
                  }
                }
              }
              JOINT rIndex1
              {
                OFFSET -7.75947 0.938293 5.60832
                CHANNELS 3 Zrotation Xrotation Yrotation
                JOINT rIndex2
                {
                  OFFSET -2.54057 -0.884171 1.56538
                  CHANNELS 3 Zrotation Xrotation Yrotation
                  End Site
                  {
                    OFFSET -1.62519 -0.234802 1.16502
                  }
                }
              }
              JOINT rMid1
              {
                OFFSET -8.24714 1.18213 3.41376
                CHANNELS 3 Zrotation Xrotation Yrotation
                JOINT rMid2
                {
                  OFFSET -3.10165 -0.590103 1.0647
                  CHANNELS 3 Zrotation Xrotation Yrotation
                  End Site
                  {
                    OFFSET -2.48547 -0.328903 0.83742
                  }
                }
              }
              JOINT rRing1
              {
                OFFSET -8.82822 0.546677 1.51678
                CHANNELS 3 Zrotation Xrotation Yrotation
                JOINT rRing2
                {
                  OFFSET -2.60934 -0.819778 -0.0198488
                  CHANNELS 3 Zrotation Xrotation Yrotation
                  End Site
                  {
                    OFFSET -2.33842 -0.294052 0.168128
                  }
                }
              }
              JOINT rPinky1
              {
                OFFSET -8.27202 -0.0477905 -0.4584
                CHANNELS 3 Zrotation Xrotation Yrotation
                JOINT rPinky2
                {
                  OFFSET -1.82734 -0.647385 -0.700984
                  CHANNELS 3 Zrotation Xrotation Yrotation
                  End Site
                  {
                    OFFSET -1.69225 -0.51767 -0.607171
                  }
                }
              }
            }
          }
        }
      }
      JOINT lCollar
      {
        OFFSET 2.68224 19.2634 -4.8768
        CHANNELS 3 Zrotation Xrotation Yrotation
        JOINT lShldr
        {
          OFFSET 8.77824 -1.95073 1.46304
          CHANNELS 3 Zrotation Xrotation Yrotation
          JOINT lForeArm
          {
            OFFSET 28.1742 -1.7115 0.48768
            CHANNELS 3 Zrotation Xrotation Yrotation
            JOINT lHand
            {
              OFFSET 22.5879 0.773209 7.07136
              CHANNELS 3 Zrotation Xrotation Yrotation
              JOINT lThumb1
              {
                OFFSET 1.2192 -0.487915 3.41376
                CHANNELS 3 Zrotation Xrotation Yrotation
                JOINT lThumb2
                {
                  OFFSET 3.37035 -0.52449 3.41376
                  CHANNELS 3 Zrotation Xrotation Yrotation
                  End Site
                  {
                    OFFSET 1.78271 -1.18214 1.43049
                  }
                }
              }
              JOINT lIndex1
              {
                OFFSET 7.75947 0.938293 5.60832
                CHANNELS 3 Zrotation Xrotation Yrotation
                JOINT lIndex2
                {
                  OFFSET 2.54057 -0.884171 1.56538
                  CHANNELS 3 Zrotation Xrotation Yrotation
                  End Site
                  {
                    OFFSET 1.62519 -0.234802 1.16502
                  }
                }
              }
              JOINT lMid1
              {
                OFFSET 8.24714 1.18213 3.41376
                CHANNELS 3 Zrotation Xrotation Yrotation
                JOINT lMid2
                {
                  OFFSET 3.10165 -0.590103 1.0647
                  CHANNELS 3 Zrotation Xrotation Yrotation
                  End Site
                  {
                    OFFSET 2.48547 -0.328903 0.83742
                  }
                }
              }
              JOINT lRing1
              {
                OFFSET 8.82822 0.546677 1.51678
                CHANNELS 3 Zrotation Xrotation Yrotation
                JOINT lRing2
                {
                  OFFSET 2.60934 -0.819778 -0.0198488
                  CHANNELS 3 Zrotation Xrotation Yrotation
                  End Site
                  {
                    OFFSET 2.33842 -0.294052 0.168128
                  }
                }
              }
              JOINT lPinky1
              {
                OFFSET 8.27202 -0.0477905 -0.4584
                CHANNELS 3 Zrotation Xrotation Yrotation
                JOINT lPinky2
                {
                  OFFSET 1.82734 -0.647385 -0.700984
                  CHANNELS 3 Zrotation Xrotation Yrotation
                  End Site
                  {
                    OFFSET 1.69225 -0.51767 -0.607171
                  }
                }
              }
            }
          }
        }
      }
    }
  }
  JOINT rButtock
  {
    OFFSET -8.77824 4.35084 1.2192
    CHANNELS 3 Zrotation Xrotation Yrotation
    JOINT rThigh
    {
      OFFSET 0 -1.70687 -2.19456
      CHANNELS 3 Zrotation Xrotation Yrotation
      JOINT rShin
      {
        OFFSET 0 -36.8199 0.73152
        CHANNELS 3 Zrotation Xrotation Yrotation
        JOINT rFoot
        {
          OFFSET 0.73152 -45.1104 -5.12064
          CHANNELS 3 Zrotation Xrotation Yrotation
          End Site
          {
            OFFSET -1.1221 -3.69964 12.103
          }
        }
      }
    }
  }
  JOINT lButtock
  {
    OFFSET 8.77824 4.35084 1.2192
    CHANNELS 3 Zrotation Xrotation Yrotation
    JOINT lThigh
    {
      OFFSET 0 -1.70687 -2.19456
      CHANNELS 3 Zrotation Xrotation Yrotation
      JOINT lShin
      {
        OFFSET 0 -36.8199 0.73152
        CHANNELS 3 Zrotation Xrotation Yrotation
        JOINT lFoot
        {
          OFFSET -0.73152 -45.1104 -5.12064
          CHANNELS 3 Zrotation Xrotation Yrotation
          End Site
          {
            OFFSET 1.1221 -3.69964 12.103
          }
        }
      }
    }
  }
}
MOTION
Frames:	4
Frame Time:	0.03333
-0.0015987083315849304 -2.1445171907544136 -0.0057256780564785 -4.609985828399658 -0.8143692016601562 6.082183361053467 -2.225862503051758 14.334083557128906 3.4760167598724365 2.7135672569274902 -9.035234451293945 1.3451400995254517 -5.344083786010742 15.068929672241211 -3.7556872367858887 9.009526252746582 -24.285938262939453 -5.719485759735107 0.07232167571783066 -0.18948759138584137 0.1136842668056488 0.2335074245929718 0.058299411088228226 0.06686320900917053 -0.21753957867622375 0.12680579721927643 0.028395459055900574 49.30937194824219 38.650047302246094 14.842594146728516 -27.193023681640625 -26.88980484008789 61.8819465637207 0.18746279180049896 -11.932345390319824 -1.5976930856704712 -0.09588334709405899 0.09349067509174347 -0.20954842865467072 0.13246017694473267 -0.06384167075157166 0.07374170422554016 0.382281631231308 -0.03427678719162941 0.2977641224861145 7.892241477966309 5.392294406890869 0.4868275225162506 0.22924856841564178 -0.08541923761367798 0.006698694080114365 2.8297035694122314 1.064382553100586 0.08959659934043884 0.1296209841966629 -0.23331278562545776 -0.13750281929969788 10.171594619750977 0.7754728198051453 0.2126786708831787 0.1454162895679474 0.1386563628911972 0.12645797431468964 2.3254287242889404 -0.9190166592597961 -0.31369778513908386 0.10124746710062027 -0.32162773609161377 -0.016281314194202423 -54.78384017944336 37.66877365112305 -27.645126342773438 26.035125732421875 -23.63164710998535 -56.769718170166016 0.03339138254523277 -9.215532302856445 1.3869963884353638 -0.1999359130859375 0.027481039986014366 -0.07655484229326248 -0.003529642941430211 -0.09250032901763916 0.38295748829841614 -0.22865641117095947 -0.09719707816839218 0.2414597123861313 -7.612354755401611 5.468741416931152 -0.4366403818130493 0.007673099171370268 0.15937422215938568 -0.08264931291341782 -2.617009401321411 1.1274521350860596 -0.04084328934550285 -0.13063107430934906 0.020263884216547012 0.07718519866466522 -10.30695915222168 0.8869825005531311 -0.08435022085905075 -0.10539331287145615 -0.06186363473534584 0.013291237875819206 -2.3906686305999756 -0.8849705457687378 0.14004839956760406 0.17838726937770844 0.05697006359696388 -0.2852451801300049 -21.235668182373047 -38.0565299987793 -17.695478439331055 -0.8538855910301208 62.497222900390625 1.975818395614624 -4.028203010559082 -10.68283748626709 -10.488021850585938 0.17329604923725128 0.30709829926490784 -0.17160199582576752 28.83548927307129 -38.8126106262207 21.319005966186523 1.0687110424041748 64.50130462646484 -2.1507086753845215 3.969064235687256 -10.090071678161621 13.770907402038574
-0.0064607709646224976 -2.143407054245472 -0.013325084000825882 -4.3276824951171875 -0.3148665726184845 5.706935405731201 -2.1579997539520264 14.688338279724121 3.347797155380249 2.7909209728240967 -9.158319473266602 1.4259206056594849 -4.99880838394165 15.20157241821289 -3.716204881668091 8.916348457336426 -24.667905807495117 -5.7272210121154785 0.03201160207390785 -0.08110116422176361 -0.07641543447971344 0.2847738564014435 0.04053546115756035 0.14993484318256378 -0.3063136041164398 0.30900582671165466 0.07172095775604248 49.697357177734375 37.975860595703125 14.770206451416016 -27.518943786621094 -27.307308197021484 62.51259994506836 0.2175276130437851 -12.267105102539062 -1.6207257509231567 -0.20869134366512299 0.18802641332149506 -0.21659445762634277 0.11213701218366623 0.029943447560071945 0.0757097527384758 0.5268060564994812 -0.10340824723243713 0.2507559061050415 7.726551055908203 5.417355537414551 0.40802454948425293 0.35538679361343384 -0.0033310800790786743 0.02721022628247738 2.9886722564697266 1.0508887767791748 0.15558817982673645 -0.033494070172309875 -0.305088609457016 -0.21817804872989655 10.244282722473145 0.8008732795715332 0.44631966948509216 0.0026998359244316816 -0.09084264934062958 0.10310030728578568 2.394855260848999 -1.1191234588623047 -0.29669520258903503 0.13870199024677277 -0.1438218653202057 -0.07990512251853943 -54.21715545654297 37.63727569580078 -28.51689338684082 25.969280242919922 -23.783292770385742 -56.96123504638672 -0.09761674702167511 -9.516509056091309 1.5627564191818237 -0.22022034227848053 0.13506068289279938 -0.021724721416831017 0.1145792156457901 -0.02556554228067398 0.5535097122192383 -0.2706061601638794 -0.1738894283771515 0.28331199288368225 -7.737346172332764 5.6171674728393555 -0.2893674969673157 0.15823492407798767 0.3285183012485504 -0.051233772188425064 -2.5675764083862305 1.201182246208191 0.04722520336508751 -0.17614416778087616 0.11282630264759064 -0.2387591004371643 -10.438162803649902 0.8331925272941589 -0.22302314639091492 -0.16211630403995514 -0.027853379026055336 0.06092425063252449 -2.4614460468292236 -0.8731158375740051 0.11490210145711899 0.1805201768875122 0.08596274256706238 -0.34961581230163574 -21.19091033935547 -38.251678466796875 -17.87407684326172 -0.9159939289093018 61.98648452758789 1.8860336542129517 -4.142337322235107 -10.177653312683105 -10.814912796020508 -0.023891251534223557 0.390261173248291 -0.2058560699224472 29.15303611755371 -39.16788864135742 21.589237213134766 1.522751808166504 64.75865173339844 -2.4731547832489014 3.804490327835083 -9.758450508117676 14.086301803588867
-0.03221500664949417 -2.059956081211567 -0.03439951688051224 -10.652284622192383 -28.835697174072266 10.183828353881836 5.576504230499268 11.75257682800293 3.5148205757141113 2.1670384407043457 -8.330070495605469 1.2177412509918213 -1.5720182657241821 12.99704360961914 5.1695332527160645 5.253398418426514 -23.691425323486328 10.175000190734863 -0.21610340476036072 -0.06036918982863426 0.2643214762210846 0.6821973919868469 0.2587850093841553 0.15925262868404388 -1.3323719501495361 0.1429455578327179 -0.3090903162956238 98.38172149658203 50.777008056640625 -41.87738800048828 -28.126075744628906 -40.489376068115234 84.70231628417969 -4.987618923187256 -54.178558349609375 -10.65514850616455 -0.07859425246715546 -0.16937391459941864 0.6272655129432678 0.06628488004207611 0.3449818193912506 0.49337512254714966 0.6881104111671448 -0.39661526679992676 -0.09860990941524506 7.9233245849609375 5.895968914031982 0.029188135638833046 -0.09838215261697769 -0.06615427881479263 -0.36562639474868774 2.540801525115967 0.7298675775527954 -0.01902330294251442 -0.2272186130285263 0.3342586159706116 0.5650745630264282 10.755964279174805 0.4242249131202698 0.10692223161458969 0.7384805679321289 -0.25606203079223633 0.23841062188148499 1.9694559574127197 -0.79243403673172 -0.1265375316143036 0.057214442640542984 -0.35729292035102844 -0.08668050169944763 -52.06803894042969 -5.467508792877197 -60.460880279541016 13.031506538391113 -6.324181079864502 -24.30668830871582 3.7096996307373047 47.358097076416016 -8.81549072265625 -0.5090980529785156 0.035474441945552826 0.01875242590904236 0.6225646138191223 -0.0022759372368454933 0.5123553276062012 0.01731122098863125 -0.11853392422199249 0.6754042506217957 -7.9398884773254395 4.659328460693359 -0.1772947758436203 -0.18491478264331818 0.6107839941978455 -0.5409919619560242 -2.530069589614868 1.1246368885040283 0.5107389688491821 0.06619111448526382 -0.7845901250839233 -0.5869198441505432 -9.67682933807373 0.9596934914588928 0.42797520756721497 -0.2573096454143524 -0.21464323997497559 -0.05131354182958603 -2.7531211376190186 -0.16157209873199463 -0.24004511535167694 0.3434622585773468 0.49375978112220764 -0.5607717633247375 -11.164456367492676 -9.600157737731934 -8.16605281829834 -0.3844149708747864 46.28001022338867 2.4980502128601074 -9.001285552978516 -16.304353713989258 -26.75037384033203 -0.26987555623054504 0.5931174755096436 0.6308968663215637 63.94045639038086 -52.966548919677734 52.7453727722168 5.288513660430908 75.34537506103516 -5.449225425720215 -0.0586978942155838 -2.236416816711426 0.8377783298492432
-0.07015317678451538 -1.9572021439671516 -0.0593588687479496 -11.644796371459961 -36.24671936035156 13.140379905700684 7.5498833656311035 10.03593921661377 3.0727200508117676 2.1700031757354736 -7.781380653381348 1.2407389879226685 0.626670777797699 11.43833065032959 9.371583938598633 3.611069917678833 -23.513776779174805 18.089448928833008 -0.0987379252910614 -0.27610650658607483 0.020157480612397194 0.3566853702068329 0.13268046081066132 0.23223452270030975 -1.3248000144958496 0.3543422520160675 -0.36190497875213623 117.28179931640625 43.73393630981445 -64.45531463623047 -26.212787628173828 -46.26655960083008 95.2728271484375 -14.429680824279785 -68.90438842773438 -21.0599365234375 0.31115177273750305 -0.44373220205307007 0.9103880524635315 0.2590011954307556 -0.1626926064491272 0.32682427763938904 0.20110996067523956 0.14546537399291992 0.14483262598514557 7.865068435668945 5.909267425537109 0.14889247715473175 0.22292833030223846 -0.012653514742851257 -0.127166286110878 3.090501070022583 1.1747791767120361 0.609932541847229 0.27102115750312805 -0.13340768218040466 0.20210599899291992 10.410914421081543 0.9690081477165222 0.10450273007154465 0.21897263824939728 -0.09434213489294052 0.5997423529624939 1.8214170932769775 -0.5988616347312927 -0.6464070081710815 -0.09753678739070892 -0.4379442036151886 -0.2620799243450165 -61.99056625366211 -24.03372573852539 -79.32567596435547 6.153369426727295 -2.490391969680786 -10.929253578186035 13.560462951660156 68.25263214111328 -20.390024185180664 0.24248147010803223 -0.2418382316827774 0.18874599039554596 0.26322412490844727 0.15613025426864624 0.598296582698822 -0.1734609752893448 -0.28715425729751587 1.2064666748046875 -7.749349594116211 5.343489646911621 -0.717352032661438 -0.06718534231185913 0.5904598832130432 -0.31274765729904175 -2.43249773979187 1.095894455909729 0.5522111058235168 -0.16771340370178223 -0.15061639249324799 -0.09613025933504105 -9.804426193237305 1.4412230253219604 0.24034588038921356 -0.49519193172454834 -0.11897046864032745 0.12778297066688538 -2.262643814086914 -0.5617200136184692 -0.030596157535910606 0.1885909140110016 0.2616029679775238 -0.36373481154441833 -11.286669731140137 1.5844510793685913 -5.7786054611206055 0.4539424180984497 41.17530822753906 2.443211317062378 -10.055394172668457 -18.110057830810547 -30.62891960144043 -0.3859706521034241 0.35206305980682373 0.25459206104278564 77.04582214355469 -53.744056701660156 64.48545837402344 2.8194198608398438 75.6931381225586 -2.2235805988311768 -1.511247992515564 2.947067975997925 -2.585507869720459
